<svg width="1600" height="900" viewBox="0 0 1600 900" fill="none" xmlns="http://www.w3.org/2000/svg">
  <defs>
    <linearGradient id="bg" x1="120" y1="80" x2="1480" y2="820" gradientUnits="userSpaceOnUse">
      <stop stop-color="#241914"/>
      <stop offset="0.48" stop-color="#5B3922"/>
      <stop offset="1" stop-color="#D97757"/>
    </linearGradient>
    <linearGradient id="card" x1="280" y1="180" x2="1310" y2="760" gradientUnits="userSpaceOnUse">
      <stop stop-color="rgba(255,248,237,0.92)"/>
      <stop offset="1" stop-color="rgba(255,241,228,0.82)"/>
    </linearGradient>
    <filter id="shadow" x="214" y="124" width="1172" height="672" filterUnits="userSpaceOnUse" color-interpolation-filters="sRGB">
      <feDropShadow dx="0" dy="20" stdDeviation="24" flood-color="#1B130F" flood-opacity="0.28"/>
    </filter>
  </defs>
  <rect width="1600" height="900" fill="url(#bg)"/>
  <circle cx="1338" cy="152" r="170" fill="#F2B880" fill-opacity="0.18"/>
  <circle cx="202" cy="764" r="220" fill="#FFE0BF" fill-opacity="0.1"/>
  <g filter="url(#shadow)">
    <rect x="262" y="172" width="1076" height="576" rx="36" fill="#FFF8EE" fill-opacity="0.9"/>
  </g>
  <rect x="320" y="236" width="268" height="48" rx="24" fill="#8B5E34" fill-opacity="0.12"/>
  <text x="356" y="267" fill="#8B5E34" font-family="Noto Serif SC, Microsoft YaHei, sans-serif" font-size="24" font-weight="700">Git 方法</text>
  <text x="320" y="370" fill="#2A211B" font-family="Noto Serif SC, Microsoft YaHei, sans-serif" font-size="72" font-weight="700">Git 存档操作演示</text>
  <text x="320" y="438" fill="#6F6256" font-family="IBM Plex Sans, Microsoft YaHei, sans-serif" font-size="30" font-weight="500">把留档流程固定下来，关键节点随时可回到稳定状态</text>
  <rect x="320" y="500" width="440" height="148" rx="28" fill="#231A16"/>
  <path d="M494 574.464C504.667 580.624 504.667 596.02 494 602.18L421.25 644.184C410.583 650.344 397.25 642.646 397.25 630.326V546.318C397.25 533.998 410.583 526.3 421.25 532.46L494 574.464Z" fill="#FFF8EE"/>
  <text x="548" y="573" fill="#FFF8EE" font-family="IBM Plex Sans, Microsoft YaHei, sans-serif" font-size="26" font-weight="600">阶段性备份</text>
  <text x="548" y="614" fill="#F2D8C4" font-family="IBM Plex Sans, Microsoft YaHei, sans-serif" font-size="22" font-weight="500">留档、封版、交接前</text>
  <rect x="814" y="514" width="420" height="44" rx="22" fill="#8B5E34" fill-opacity="0.12"/>
  <text x="842" y="544" fill="#5F3D1E" font-family="IBM Plex Sans, Microsoft YaHei, sans-serif" font-size="22" font-weight="600">适用场景：稳定检查点 / 版本留底 / 临时回退前</text>
  <rect x="814" y="582" width="340" height="44" rx="22" fill="#8B5E34" fill-opacity="0.08"/>
  <text x="842" y="612" fill="#5F3D1E" font-family="IBM Plex Sans, Microsoft YaHei, sans-serif" font-size="22" font-weight="600">文件：git方法.mp4</text>
</svg>